<svg width="17" height="18" viewBox="0 0 17 18" fill="none" xmlns="http://www.w3.org/2000/svg">
<path d="M3.03572 6.57143C2.43531 6.57143 1.84838 6.39339 1.34916 6.05982C0.849942 5.72625 0.460847 5.25214 0.231081 4.69743C0.00131533 4.14273 -0.0588019 3.53235 0.0583318 2.94348C0.175465 2.35461 0.464589 1.81369 0.889141 1.38914C1.31369 0.964589 1.85461 0.675465 2.44348 0.558332C3.03235 0.441198 3.64273 0.501315 4.19743 0.731081C4.75214 0.960847 5.22625 1.34994 5.55982 1.84916C5.89339 2.34838 6.07143 2.93531 6.07143 3.53572H4.85714C4.85714 3.17547 4.75032 2.82332 4.55018 2.52378C4.35004 2.22425 4.06557 1.99079 3.73275 1.85294C3.39992 1.71508 3.03369 1.67901 2.68037 1.74929C2.32705 1.81957 2.0025 1.99304 1.74777 2.24777C1.49304 2.5025 1.31957 2.82705 1.24929 3.18037C1.179 3.53369 1.21508 3.89992 1.35293 4.23275C1.49079 4.56557 1.72425 4.85004 2.02378 5.05018C2.32332 5.25032 2.67547 5.35714 3.03572 5.35714V6.57143ZM13.9643 6.57143V5.35714C14.3245 5.35714 14.6767 5.25032 14.9762 5.05018C15.2757 4.85004 15.5092 4.56557 15.6471 4.23275C15.7849 3.89992 15.821 3.53369 15.7507 3.18037C15.6804 2.82705 15.507 2.5025 15.2522 2.24777C14.9975 1.99304 14.673 1.81957 14.3196 1.74929C13.9663 1.67901 13.6001 1.71508 13.2673 1.85294C12.9344 1.99079 12.65 2.22425 12.4498 2.52378C12.2497 2.82332 12.1429 3.17547 12.1429 3.53572H10.9286C10.9286 2.93531 11.1066 2.34838 11.4402 1.84916C11.7737 1.34994 12.2479 0.960847 12.8026 0.731081C13.3573 0.501315 13.9677 0.441198 14.5565 0.558332C15.1454 0.675465 15.6863 0.964589 16.1109 1.38914C16.5354 1.81369 16.8245 2.35461 16.9417 2.94348C17.0588 3.53235 16.9987 4.14273 16.7689 4.69743C16.5392 5.25214 16.1501 5.72625 15.6508 6.05982C15.1516 6.39339 14.5647 6.57143 13.9643 6.57143ZM3.03572 17.5C2.23059 17.5 1.45845 17.1802 0.889141 16.6109C0.319835 16.0416 1.35144e-06 15.2694 1.35144e-06 14.4643C1.35144e-06 13.6592 0.319835 12.887 0.889141 12.3177C1.45845 11.7484 2.23059 11.4286 3.03572 11.4286V12.6429C2.67547 12.6429 2.32332 12.7497 2.02378 12.9498C1.72425 13.15 1.49079 13.4344 1.35293 13.7673C1.21508 14.1001 1.179 14.4663 1.24929 14.8196C1.31957 15.173 1.49304 15.4975 1.74777 15.7522C2.0025 16.007 2.32705 16.1804 2.68037 16.2507C3.03369 16.321 3.39992 16.2849 3.73275 16.1471C4.06557 16.0092 4.35004 15.7757 4.55018 15.4762C4.75032 15.1767 4.85714 14.8245 4.85714 14.4643H6.07143C6.07062 15.2692 5.75053 16.0408 5.1814 16.61C4.61227 17.1791 3.84059 17.4992 3.03572 17.5V17.5ZM13.9643 17.5C13.1594 17.4992 12.3877 17.1791 11.8186 16.61C11.2495 16.0408 10.9294 15.2692 10.9286 14.4643H12.1429C12.1429 14.8245 12.2497 15.1767 12.4498 15.4762C12.65 15.7757 12.9344 16.0092 13.2673 16.1471C13.6001 16.2849 13.9663 16.321 14.3196 16.2507C14.673 16.1804 14.9975 16.007 15.2522 15.7522C15.507 15.4975 15.6804 15.173 15.7507 14.8196C15.821 14.4663 15.7849 14.1001 15.6471 13.7673C15.5092 13.4344 15.2757 13.15 14.9762 12.9498C14.6767 12.7497 14.3245 12.6429 13.9643 12.6429V11.4286C14.7694 11.4286 15.5416 11.7484 16.1109 12.3177C16.6802 12.887 17 13.6592 17 14.4643C17 15.2694 16.6802 16.0416 16.1109 16.6109C15.5416 17.1802 14.7694 17.5 13.9643 17.5Z" fill="white"/>
<path d="M10.9286 10.5701V7.42993L14.3935 3.96497C14.4515 3.90896 14.4978 3.84196 14.5296 3.76789C14.5614 3.69382 14.5782 3.61415 14.5789 3.53353C14.5796 3.45291 14.5642 3.37297 14.5337 3.29835C14.5032 3.22373 14.4581 3.15595 14.4011 3.09894C14.3441 3.04193 14.2763 2.99685 14.2017 2.96632C14.127 2.9358 14.0471 2.92043 13.9665 2.92113C13.8859 2.92184 13.8062 2.93858 13.7321 2.9704C13.658 3.00222 13.5911 3.04848 13.535 3.10647L10.8029 5.83861C10.65 5.34733 10.344 4.91782 9.92964 4.61282C9.51527 4.30781 9.01423 4.14329 8.49971 4.14329C7.98518 4.14329 7.48414 4.30781 7.06977 4.61282C6.6554 4.91782 6.34942 5.34733 6.19651 5.83861L3.46497 3.10647C3.35112 2.99264 3.19672 2.9287 3.03572 2.9287C2.87473 2.9287 2.72033 2.99264 2.60647 3.10647C2.49265 3.22032 2.42871 3.37472 2.42871 3.53572C2.42871 3.69671 2.49265 3.85111 2.60647 3.96497L6.07144 7.42993V10.5701L2.60647 14.035C2.49265 14.1489 2.42871 14.3033 2.42871 14.4643C2.42871 14.6253 2.49265 14.7797 2.60647 14.8935C2.72033 15.0074 2.87473 15.0713 3.03572 15.0713C3.19672 15.0713 3.35112 15.0074 3.46497 14.8935L6.19712 12.1614C6.35002 12.6527 6.65601 13.0822 7.07038 13.3872C7.48475 13.6922 7.98579 13.8567 8.50031 13.8567C9.01483 13.8567 9.51587 13.6922 9.93024 13.3872C10.3446 13.0822 10.6506 12.6527 10.8035 12.1614L13.5357 14.8935C13.6502 15.0041 13.8035 15.0653 13.9627 15.0639C14.1219 15.0626 14.2742 14.9987 14.3868 14.8861C14.4993 14.7736 14.5632 14.6213 14.5646 14.4621C14.5659 14.3029 14.5047 14.1495 14.3942 14.035L10.9286 10.5701ZM9.71429 11.4286C9.71429 11.7506 9.58636 12.0595 9.35864 12.2872C9.13092 12.5149 8.82206 12.6429 8.50001 12.6429C8.17796 12.6429 7.8691 12.5149 7.64138 12.2872C7.41366 12.0595 7.28572 11.7506 7.28572 11.4286V6.57143C7.28572 6.24938 7.41366 5.94052 7.64138 5.7128C7.8691 5.48508 8.17796 5.35714 8.50001 5.35714C8.82206 5.35714 9.13092 5.48508 9.35864 5.7128C9.58636 5.94052 9.71429 6.24938 9.71429 6.57143V11.4286Z" fill="white"/>
</svg>
